<svg width="391" height="349" viewBox="0 0 391 349" fill="none" xmlns="http://www.w3.org/2000/svg">
<path d="M224.66 301.5C229.273 300.687 233.289 298.494 236.365 295.423C243.798 297.588 251.959 298.09 260.585 296.569C295.277 290.452 308.633 257.767 303.765 230.159L303.73 229.965C298.859 202.338 275.248 176.392 240.67 182.489C223.345 185.544 211.313 195.277 204.235 207.71C200.35 198.436 190.445 192.746 180.126 194.565L130.976 203.231C119.01 205.341 111.021 216.752 113.131 228.718L115.82 243.968C116.833 249.714 120.087 254.822 124.867 258.169C126.214 259.113 127.652 259.894 129.151 260.508L122.218 270.41C115.488 280.021 117.484 293.221 126.754 300.412C139.613 310.387 155.981 315.012 175.129 311.635C182.086 310.409 188.869 307.965 194.896 304.18C198.188 305.237 201.781 305.534 205.427 304.892L224.66 301.5ZM155.848 273.184C156.168 273.155 156.488 273.112 156.809 273.056L157.131 272.999C158.798 273.618 160.48 274.025 162.194 274.203C163.938 274.887 165.847 275.147 167.754 274.919C168.804 274.794 169.853 274.52 170.874 274.089C171.108 273.989 171.342 273.882 171.576 273.764C171.693 273.706 171.809 273.645 171.925 273.581C171.983 273.55 172.041 273.518 172.099 273.485C172.111 273.478 172.123 273.471 172.135 273.464C172.152 273.454 172.168 273.445 172.185 273.435L172.228 273.41L172.25 273.397L172.26 273.391L172.266 273.388L172.269 273.386C172.269 273.386 172.27 273.386 171.76 272.522C171.76 272.522 171.761 272.522 171.761 272.522L172.271 273.385C175.386 271.543 177.333 268.443 177.808 265.087C177.817 265.019 177.826 264.95 177.835 264.882C178.088 262.819 177.786 260.668 176.858 258.66C177.629 258.875 178.284 259.127 178.831 259.401C180.029 260.001 180.76 260.717 181.289 261.71L155.848 273.184Z" fill="#F2F2F2" stroke="#FF0020" stroke-width="23" stroke-linejoin="round"/>
<ellipse cx="206.719" cy="188.41" rx="9.21875" ry="8.64795" fill="#FF0020"/>
<mask id="path-3-outside-1_274_60" maskUnits="userSpaceOnUse" x="-2.77527" y="-4.46859" width="396.96" height="292.321" fill="black">
<rect fill="white" x="-2.77527" y="-4.46859" width="396.96" height="292.321"/>
<path fill-rule="evenodd" clip-rule="evenodd" d="M271.496 120.337L295.131 116.169L287.921 75.2798L322.548 111.335L350.911 106.334L312.176 67.713L334.774 22.4207L306.294 27.4426L286.9 69.4891L280.295 32.0269L256.659 36.1945L271.496 120.337ZM249.911 36.3963C249.809 33.0972 252.141 30.137 255.487 29.547L279.123 25.3794C282.794 24.7321 286.295 27.1835 286.942 30.8548L289.803 47.0795L300.164 24.6155C301.091 22.6066 302.943 21.1793 305.121 20.7951L333.602 15.7732C336.113 15.3305 338.658 16.34 340.183 18.3828C341.708 20.4256 341.952 23.1532 340.814 25.4343L320.389 66.3704L355.677 101.554C357.46 103.332 358.105 105.956 357.35 108.359C357.196 108.848 356.989 109.312 356.736 109.744C357.409 110.594 357.887 111.618 358.089 112.761L361.923 134.504C362.57 138.175 360.119 141.676 356.447 142.323L352.398 143.105C356.07 142.457 359.571 144.909 360.218 148.58L363.959 169.799C364.607 173.47 362.155 176.971 358.484 177.618L358.79 179.627L363.665 178.663C367.336 178.015 370.837 180.467 371.485 184.138L375.319 205.881C375.629 207.644 375.227 209.458 374.2 210.925C373.174 212.391 371.606 213.39 369.843 213.701L298.59 226.265C294.918 226.912 291.417 224.461 290.77 220.789L279.424 156.445L261.497 159.606L272.842 223.95C273.153 225.713 272.751 227.528 271.724 228.994C270.697 230.461 269.13 231.459 267.367 231.77L241.171 236.389C237.5 237.036 233.999 234.585 233.351 230.914L222.006 166.569L200.754 170.317C197.083 170.964 193.582 168.513 192.935 164.841L192.814 164.155L178.478 202.875L184.928 239.452C185.239 241.215 184.837 243.029 183.81 244.496C182.783 245.962 181.216 246.961 179.453 247.272L153.256 251.891C151.493 252.202 149.679 251.799 148.213 250.773C146.746 249.746 145.748 248.178 145.437 246.415L139.17 210.876L122.577 191.205C121.968 194.137 120.884 196.922 119.332 199.507C126.296 204.269 130.82 211.516 132.379 220.357C134.145 230.373 131.63 239.827 125.535 247.232C119.51 254.554 110.352 259.456 99.4011 261.387L56.4394 268.962C52.7681 269.61 49.2671 267.158 48.6198 263.487L32.1758 170.228C31.932 168.846 32.1278 167.487 32.6627 166.296C31.7527 165.36 31.1041 164.15 30.8602 162.767L16.0237 78.6251C15.3764 74.9538 17.8278 71.4529 21.4991 70.8055L45.1345 66.6379C48.8057 65.9906 52.3067 68.442 52.954 72.1133L57.3248 96.901L71.2106 94.4525L66.8398 69.6648C66.1925 65.9935 68.6439 62.4926 72.3152 61.8452L95.9506 57.6777C97.7136 57.3668 99.5279 57.769 100.994 58.7959C102.461 59.8227 103.459 61.39 103.77 63.153L113.26 116.974L124.738 57.0176C125.265 54.266 127.437 52.1258 130.196 51.6393L154.304 47.3884C157.072 46.9003 159.853 48.1785 161.284 50.5971L176.897 76.9688C180.066 55.3409 197.265 38.351 220.634 34.2304C231.19 32.3691 241.134 33.2439 249.911 36.3963ZM183.258 87.7139C183.374 89.2256 183.566 90.7529 183.837 92.2924C186.101 105.133 193.342 115.336 203.332 121.62C210.778 126.304 219.751 128.811 229.33 128.611C231.973 128.555 234.663 128.294 237.379 127.815C240.475 127.269 243.334 126.552 245.986 125.674C252.919 123.377 258.441 119.975 263.089 115.627C263.297 115.433 263.503 115.237 263.707 115.039C265.128 113.662 266.466 112.195 267.738 110.642L249.11 97.5984C248.994 97.7701 248.875 97.9396 248.754 98.1071C245.367 102.802 240.322 105.85 233.475 107.057C220.83 109.287 210.425 102.105 207.945 88.0414C205.486 74.0965 212.829 63.9067 225.473 61.6771C231.854 60.552 237.189 61.6162 241.459 64.2815C242.013 64.6273 242.549 65.0001 243.067 65.3986L255.992 46.7914C254.466 45.8415 252.874 44.982 251.22 44.2189C250.801 44.0254 250.378 43.8381 249.951 43.6571C241.792 40.1992 232.227 39.0404 221.806 40.8779C197.626 45.1414 181.497 64.6227 183.258 87.7139ZM201.984 132.593L177.403 136.928L170.294 123.559L140.513 128.81L138.287 143.825L114.178 148.076L131.368 58.2868L155.476 54.0359L201.984 132.593ZM97.5355 161.449C93.2909 160.427 88.5038 160.296 83.3568 161.204L38.8233 169.056L55.2672 262.315L98.229 254.739C117.614 251.321 128.595 237.771 125.731 221.529C124.46 214.322 120.834 208.575 115.171 204.844C113.218 203.557 111.023 202.51 108.599 201.726C110.56 200.088 112.155 198.271 113.381 196.299C115.661 192.63 116.663 188.423 116.363 183.837C116.301 182.897 116.185 181.941 116.014 180.971C114.712 173.586 110.638 167.789 104.683 164.297C104.549 164.219 104.413 164.141 104.277 164.064C102.489 163.062 100.538 162.262 98.4477 161.685C98.1465 161.602 97.8424 161.523 97.5355 161.449ZM103.157 157.712L145.502 207.914L152.084 245.243L178.28 240.624L171.513 202.247L193.927 141.707L164.456 146.904L153.973 178.599L133.283 152.4L103.157 157.712ZM55.3085 124.338L82.4892 119.545L88.3238 152.635L111.959 148.467L97.1227 64.3251L73.4873 68.4927L79.0301 99.9279L51.8494 104.721L46.3066 73.2854L22.6712 77.453L37.5077 161.595L61.1431 157.428L55.3085 124.338ZM195.656 141.402L199.582 163.669L227.481 158.75L239.999 229.742L266.195 225.122L253.677 154.131L281.707 149.188L277.781 126.921L195.656 141.402ZM297.418 219.617L368.671 207.053L364.837 185.31L319.78 193.255L317.101 178.061L357.312 170.971L353.57 149.752L313.359 156.842L311.004 143.482L355.275 135.676L351.441 113.933L280.974 126.358L297.418 219.617ZM160.898 106.207L147.784 81.5903L143.526 109.27L160.898 106.207ZM67.8213 183.391L79.3476 181.358C84.9798 180.365 89.5252 182.4 90.5645 188.294C91.6038 194.188 87.8974 197.678 82.3962 198.648L70.8699 200.68L67.8213 183.391ZM74.0571 218.756L86.7622 216.515C93.4422 215.338 98.4344 218.374 99.5429 224.661C100.652 230.948 96.9989 235.509 90.3189 236.687L77.6138 238.927L74.0571 218.756Z"/>
</mask>
<path fill-rule="evenodd" clip-rule="evenodd" d="M271.496 120.337L295.131 116.169L287.921 75.2798L322.548 111.335L350.911 106.334L312.176 67.713L334.774 22.4207L306.294 27.4426L286.9 69.4891L280.295 32.0269L256.659 36.1945L271.496 120.337ZM249.911 36.3963C249.809 33.0972 252.141 30.137 255.487 29.547L279.123 25.3794C282.794 24.7321 286.295 27.1835 286.942 30.8548L289.803 47.0795L300.164 24.6155C301.091 22.6066 302.943 21.1793 305.121 20.7951L333.602 15.7732C336.113 15.3305 338.658 16.34 340.183 18.3828C341.708 20.4256 341.952 23.1532 340.814 25.4343L320.389 66.3704L355.677 101.554C357.46 103.332 358.105 105.956 357.35 108.359C357.196 108.848 356.989 109.312 356.736 109.744C357.409 110.594 357.887 111.618 358.089 112.761L361.923 134.504C362.57 138.175 360.119 141.676 356.447 142.323L352.398 143.105C356.07 142.457 359.571 144.909 360.218 148.58L363.959 169.799C364.607 173.47 362.155 176.971 358.484 177.618L358.79 179.627L363.665 178.663C367.336 178.015 370.837 180.467 371.485 184.138L375.319 205.881C375.629 207.644 375.227 209.458 374.2 210.925C373.174 212.391 371.606 213.39 369.843 213.701L298.59 226.265C294.918 226.912 291.417 224.461 290.77 220.789L279.424 156.445L261.497 159.606L272.842 223.95C273.153 225.713 272.751 227.528 271.724 228.994C270.697 230.461 269.13 231.459 267.367 231.77L241.171 236.389C237.5 237.036 233.999 234.585 233.351 230.914L222.006 166.569L200.754 170.317C197.083 170.964 193.582 168.513 192.935 164.841L192.814 164.155L178.478 202.875L184.928 239.452C185.239 241.215 184.837 243.029 183.81 244.496C182.783 245.962 181.216 246.961 179.453 247.272L153.256 251.891C151.493 252.202 149.679 251.799 148.213 250.773C146.746 249.746 145.748 248.178 145.437 246.415L139.17 210.876L122.577 191.205C121.968 194.137 120.884 196.922 119.332 199.507C126.296 204.269 130.82 211.516 132.379 220.357C134.145 230.373 131.63 239.827 125.535 247.232C119.51 254.554 110.352 259.456 99.4011 261.387L56.4394 268.962C52.7681 269.61 49.2671 267.158 48.6198 263.487L32.1758 170.228C31.932 168.846 32.1278 167.487 32.6627 166.296C31.7527 165.36 31.1041 164.15 30.8602 162.767L16.0237 78.6251C15.3764 74.9538 17.8278 71.4529 21.4991 70.8055L45.1345 66.6379C48.8057 65.9906 52.3067 68.442 52.954 72.1133L57.3248 96.901L71.2106 94.4525L66.8398 69.6648C66.1925 65.9935 68.6439 62.4926 72.3152 61.8452L95.9506 57.6777C97.7136 57.3668 99.5279 57.769 100.994 58.7959C102.461 59.8227 103.459 61.39 103.77 63.153L113.26 116.974L124.738 57.0176C125.265 54.266 127.437 52.1258 130.196 51.6393L154.304 47.3884C157.072 46.9003 159.853 48.1785 161.284 50.5971L176.897 76.9688C180.066 55.3409 197.265 38.351 220.634 34.2304C231.19 32.3691 241.134 33.2439 249.911 36.3963ZM183.258 87.7139C183.374 89.2256 183.566 90.7529 183.837 92.2924C186.101 105.133 193.342 115.336 203.332 121.62C210.778 126.304 219.751 128.811 229.33 128.611C231.973 128.555 234.663 128.294 237.379 127.815C240.475 127.269 243.334 126.552 245.986 125.674C252.919 123.377 258.441 119.975 263.089 115.627C263.297 115.433 263.503 115.237 263.707 115.039C265.128 113.662 266.466 112.195 267.738 110.642L249.11 97.5984C248.994 97.7701 248.875 97.9396 248.754 98.1071C245.367 102.802 240.322 105.85 233.475 107.057C220.83 109.287 210.425 102.105 207.945 88.0414C205.486 74.0965 212.829 63.9067 225.473 61.6771C231.854 60.552 237.189 61.6162 241.459 64.2815C242.013 64.6273 242.549 65.0001 243.067 65.3986L255.992 46.7914C254.466 45.8415 252.874 44.982 251.22 44.2189C250.801 44.0254 250.378 43.8381 249.951 43.6571C241.792 40.1992 232.227 39.0404 221.806 40.8779C197.626 45.1414 181.497 64.6227 183.258 87.7139ZM201.984 132.593L177.403 136.928L170.294 123.559L140.513 128.81L138.287 143.825L114.178 148.076L131.368 58.2868L155.476 54.0359L201.984 132.593ZM97.5355 161.449C93.2909 160.427 88.5038 160.296 83.3568 161.204L38.8233 169.056L55.2672 262.315L98.229 254.739C117.614 251.321 128.595 237.771 125.731 221.529C124.46 214.322 120.834 208.575 115.171 204.844C113.218 203.557 111.023 202.51 108.599 201.726C110.56 200.088 112.155 198.271 113.381 196.299C115.661 192.63 116.663 188.423 116.363 183.837C116.301 182.897 116.185 181.941 116.014 180.971C114.712 173.586 110.638 167.789 104.683 164.297C104.549 164.219 104.413 164.141 104.277 164.064C102.489 163.062 100.538 162.262 98.4477 161.685C98.1465 161.602 97.8424 161.523 97.5355 161.449ZM103.157 157.712L145.502 207.914L152.084 245.243L178.28 240.624L171.513 202.247L193.927 141.707L164.456 146.904L153.973 178.599L133.283 152.4L103.157 157.712ZM55.3085 124.338L82.4892 119.545L88.3238 152.635L111.959 148.467L97.1227 64.3251L73.4873 68.4927L79.0301 99.9279L51.8494 104.721L46.3066 73.2854L22.6712 77.453L37.5077 161.595L61.1431 157.428L55.3085 124.338ZM195.656 141.402L199.582 163.669L227.481 158.75L239.999 229.742L266.195 225.122L253.677 154.131L281.707 149.188L277.781 126.921L195.656 141.402ZM297.418 219.617L368.671 207.053L364.837 185.31L319.78 193.255L317.101 178.061L357.312 170.971L353.57 149.752L313.359 156.842L311.004 143.482L355.275 135.676L351.441 113.933L280.974 126.358L297.418 219.617ZM160.898 106.207L147.784 81.5903L143.526 109.27L160.898 106.207ZM67.8213 183.391L79.3476 181.358C84.9798 180.365 89.5252 182.4 90.5645 188.294C91.6038 194.188 87.8974 197.678 82.3962 198.648L70.8699 200.68L67.8213 183.391ZM74.0571 218.756L86.7622 216.515C93.4422 215.338 98.4344 218.374 99.5429 224.661C100.652 230.948 96.9989 235.509 90.3189 236.687L77.6138 238.927L74.0571 218.756Z" fill="#FF0020"/>
<path fill-rule="evenodd" clip-rule="evenodd" d="M271.496 120.337L295.131 116.169L287.921 75.2798L322.548 111.335L350.911 106.334L312.176 67.713L334.774 22.4207L306.294 27.4426L286.9 69.4891L280.295 32.0269L256.659 36.1945L271.496 120.337ZM249.911 36.3963C249.809 33.0972 252.141 30.137 255.487 29.547L279.123 25.3794C282.794 24.7321 286.295 27.1835 286.942 30.8548L289.803 47.0795L300.164 24.6155C301.091 22.6066 302.943 21.1793 305.121 20.7951L333.602 15.7732C336.113 15.3305 338.658 16.34 340.183 18.3828C341.708 20.4256 341.952 23.1532 340.814 25.4343L320.389 66.3704L355.677 101.554C357.46 103.332 358.105 105.956 357.35 108.359C357.196 108.848 356.989 109.312 356.736 109.744C357.409 110.594 357.887 111.618 358.089 112.761L361.923 134.504C362.57 138.175 360.119 141.676 356.447 142.323L352.398 143.105C356.07 142.457 359.571 144.909 360.218 148.58L363.959 169.799C364.607 173.47 362.155 176.971 358.484 177.618L358.79 179.627L363.665 178.663C367.336 178.015 370.837 180.467 371.485 184.138L375.319 205.881C375.629 207.644 375.227 209.458 374.2 210.925C373.174 212.391 371.606 213.39 369.843 213.701L298.59 226.265C294.918 226.912 291.417 224.461 290.77 220.789L279.424 156.445L261.497 159.606L272.842 223.95C273.153 225.713 272.751 227.528 271.724 228.994C270.697 230.461 269.13 231.459 267.367 231.77L241.171 236.389C237.5 237.036 233.999 234.585 233.351 230.914L222.006 166.569L200.754 170.317C197.083 170.964 193.582 168.513 192.935 164.841L192.814 164.155L178.478 202.875L184.928 239.452C185.239 241.215 184.837 243.029 183.81 244.496C182.783 245.962 181.216 246.961 179.453 247.272L153.256 251.891C151.493 252.202 149.679 251.799 148.213 250.773C146.746 249.746 145.748 248.178 145.437 246.415L139.17 210.876L122.577 191.205C121.968 194.137 120.884 196.922 119.332 199.507C126.296 204.269 130.82 211.516 132.379 220.357C134.145 230.373 131.63 239.827 125.535 247.232C119.51 254.554 110.352 259.456 99.4011 261.387L56.4394 268.962C52.7681 269.61 49.2671 267.158 48.6198 263.487L32.1758 170.228C31.932 168.846 32.1278 167.487 32.6627 166.296C31.7527 165.36 31.1041 164.15 30.8602 162.767L16.0237 78.6251C15.3764 74.9538 17.8278 71.4529 21.4991 70.8055L45.1345 66.6379C48.8057 65.9906 52.3067 68.442 52.954 72.1133L57.3248 96.901L71.2106 94.4525L66.8398 69.6648C66.1925 65.9935 68.6439 62.4926 72.3152 61.8452L95.9506 57.6777C97.7136 57.3668 99.5279 57.769 100.994 58.7959C102.461 59.8227 103.459 61.39 103.77 63.153L113.26 116.974L124.738 57.0176C125.265 54.266 127.437 52.1258 130.196 51.6393L154.304 47.3884C157.072 46.9003 159.853 48.1785 161.284 50.5971L176.897 76.9688C180.066 55.3409 197.265 38.351 220.634 34.2304C231.19 32.3691 241.134 33.2439 249.911 36.3963ZM183.258 87.7139C183.374 89.2256 183.566 90.7529 183.837 92.2924C186.101 105.133 193.342 115.336 203.332 121.62C210.778 126.304 219.751 128.811 229.33 128.611C231.973 128.555 234.663 128.294 237.379 127.815C240.475 127.269 243.334 126.552 245.986 125.674C252.919 123.377 258.441 119.975 263.089 115.627C263.297 115.433 263.503 115.237 263.707 115.039C265.128 113.662 266.466 112.195 267.738 110.642L249.11 97.5984C248.994 97.7701 248.875 97.9396 248.754 98.1071C245.367 102.802 240.322 105.85 233.475 107.057C220.83 109.287 210.425 102.105 207.945 88.0414C205.486 74.0965 212.829 63.9067 225.473 61.6771C231.854 60.552 237.189 61.6162 241.459 64.2815C242.013 64.6273 242.549 65.0001 243.067 65.3986L255.992 46.7914C254.466 45.8415 252.874 44.982 251.22 44.2189C250.801 44.0254 250.378 43.8381 249.951 43.6571C241.792 40.1992 232.227 39.0404 221.806 40.8779C197.626 45.1414 181.497 64.6227 183.258 87.7139ZM201.984 132.593L177.403 136.928L170.294 123.559L140.513 128.81L138.287 143.825L114.178 148.076L131.368 58.2868L155.476 54.0359L201.984 132.593ZM97.5355 161.449C93.2909 160.427 88.5038 160.296 83.3568 161.204L38.8233 169.056L55.2672 262.315L98.229 254.739C117.614 251.321 128.595 237.771 125.731 221.529C124.46 214.322 120.834 208.575 115.171 204.844C113.218 203.557 111.023 202.51 108.599 201.726C110.56 200.088 112.155 198.271 113.381 196.299C115.661 192.63 116.663 188.423 116.363 183.837C116.301 182.897 116.185 181.941 116.014 180.971C114.712 173.586 110.638 167.789 104.683 164.297C104.549 164.219 104.413 164.141 104.277 164.064C102.489 163.062 100.538 162.262 98.4477 161.685C98.1465 161.602 97.8424 161.523 97.5355 161.449ZM103.157 157.712L145.502 207.914L152.084 245.243L178.28 240.624L171.513 202.247L193.927 141.707L164.456 146.904L153.973 178.599L133.283 152.4L103.157 157.712ZM55.3085 124.338L82.4892 119.545L88.3238 152.635L111.959 148.467L97.1227 64.3251L73.4873 68.4927L79.0301 99.9279L51.8494 104.721L46.3066 73.2854L22.6712 77.453L37.5077 161.595L61.1431 157.428L55.3085 124.338ZM195.656 141.402L199.582 163.669L227.481 158.75L239.999 229.742L266.195 225.122L253.677 154.131L281.707 149.188L277.781 126.921L195.656 141.402ZM297.418 219.617L368.671 207.053L364.837 185.31L319.78 193.255L317.101 178.061L357.312 170.971L353.57 149.752L313.359 156.842L311.004 143.482L355.275 135.676L351.441 113.933L280.974 126.358L297.418 219.617ZM160.898 106.207L147.784 81.5903L143.526 109.27L160.898 106.207ZM67.8213 183.391L79.3476 181.358C84.9798 180.365 89.5252 182.4 90.5645 188.294C91.6038 194.188 87.8974 197.678 82.3962 198.648L70.8699 200.68L67.8213 183.391ZM74.0571 218.756L86.7622 216.515C93.4422 215.338 98.4344 218.374 99.5429 224.661C100.652 230.948 96.9989 235.509 90.3189 236.687L77.6138 238.927L74.0571 218.756Z" stroke="#FF0020" stroke-width="30" stroke-linejoin="round" mask="url(#path-3-outside-1_274_60)"/>
<path fill-rule="evenodd" clip-rule="evenodd" d="M183.838 92.2926C188.256 117.346 211.617 132.358 237.38 127.815C251.443 125.335 260.619 119.33 267.739 110.642L249.111 97.5987C245.725 102.582 240.566 105.807 233.476 107.057C220.831 109.287 210.426 102.105 207.946 88.0417C205.487 74.0968 212.829 63.907 225.474 61.6773C232.683 60.4062 238.557 61.9294 243.068 65.3988L255.993 46.7916C246.686 40.9998 234.924 38.5652 221.807 40.8782C196.044 45.4208 179.42 67.239 183.838 92.2926ZM256.66 36.1947L271.497 120.337L295.132 116.169L287.922 75.28L322.549 111.335L350.911 106.334L312.177 67.7133L334.775 22.4209L306.294 27.4428L286.901 69.4893L280.295 32.0272L256.66 36.1947ZM114.179 148.076L131.369 58.287L155.477 54.0361L201.985 132.594L177.404 136.928L170.294 123.559L140.514 128.811L138.287 143.825L114.179 148.076ZM143.527 109.271L160.899 106.207L147.785 81.5905L143.527 109.271ZM22.6719 77.4532L37.5084 161.595L61.1438 157.428L55.3092 124.338L82.4899 119.546L88.3245 152.635L111.96 148.468L97.1234 64.3254L73.488 68.493L79.0309 99.9281L51.8502 104.721L46.3073 73.2857L22.6719 77.4532ZM297.418 219.617L280.974 126.359L351.442 113.933L355.276 135.676L311.004 143.483L313.36 156.843L353.571 149.752L357.313 170.971L317.102 178.062L319.781 193.255L364.838 185.31L368.672 207.053L297.418 219.617ZM227.482 158.75L240 229.742L266.196 225.123L253.678 154.131L281.708 149.188L277.782 126.922L195.657 141.403L199.583 163.669L227.482 158.75ZM152.085 245.244L145.503 207.914L103.158 157.713L133.283 152.401L153.974 178.599L164.457 146.904L193.928 141.707L171.514 202.247L178.281 240.624L152.085 245.244ZM38.824 169.056L55.268 262.315L98.2297 254.74C117.615 251.322 128.596 237.771 125.732 221.529C124.023 211.836 118.053 204.786 108.6 201.726C114.957 196.418 117.469 189.223 116.014 180.971C113.474 166.563 100.385 158.202 83.3575 161.204L38.824 169.056ZM67.822 183.391L79.3483 181.359C84.9805 180.365 89.5259 182.4 90.5652 188.294C91.6045 194.188 87.8981 197.678 82.3969 198.648L70.8706 200.681L67.822 183.391ZM74.0578 218.756L86.7629 216.516C93.443 215.338 98.4351 218.374 99.5437 224.661C100.652 230.948 96.9997 235.509 90.3196 236.687L77.6145 238.927L74.0578 218.756Z" fill="#F2F2F2"/>
<path fill-rule="evenodd" clip-rule="evenodd" d="M201.53 253.046C199.382 248.285 196.11 244.442 191.924 241.619C191.54 241.36 191.151 241.112 190.759 240.874L194.438 236.4C196.386 234.031 197.201 230.929 196.668 227.908L194.287 214.406C193.28 208.696 187.834 204.882 182.123 205.889L132.973 214.556C127.262 215.563 123.449 221.009 124.456 226.72L127.145 241.97C127.628 244.712 129.182 247.15 131.463 248.748C133.744 250.345 136.566 250.971 139.309 250.487L140.063 250.354C139.631 252.533 139.892 254.836 140.885 256.918L142.969 261.289C142.385 261.816 141.857 262.411 141.399 263.065L131.638 277.005C128.426 281.592 129.379 287.892 133.803 291.324C144.064 299.284 157.138 303.129 173.132 300.309C181.1 298.904 188.403 295.609 194.002 290.467C196.346 292.923 199.835 294.199 203.43 293.565L222.663 290.174C227.406 289.338 230.84 285.439 231.291 280.87C238.93 285.213 248.171 287.079 258.588 285.242C285.247 280.542 296.547 255.448 292.439 232.155L292.405 231.961C288.296 208.659 269.221 189.131 242.667 193.813C216.124 198.493 204.704 223.585 208.815 246.9L208.849 247.095C209.116 248.608 209.445 250.105 209.836 251.581L201.53 253.046ZM198.267 264.283L201.606 283.225L220.839 279.833L217.499 260.892L198.267 264.283ZM220.533 250.84C221.514 254.008 222.825 256.973 224.43 259.67C225.766 261.917 227.307 263.978 229.03 265.817C235.846 273.091 245.524 276.884 256.764 274.902C276.191 271.476 285.49 253.211 282.099 233.978L282.065 233.784C278.673 214.552 263.82 200.745 244.49 204.154C225.16 207.562 215.764 225.844 219.155 245.077L219.19 245.271C219.527 247.185 219.977 249.045 220.533 250.84ZM190.195 278.972C192.925 275.04 194.268 270.302 193.847 265.063C193.785 264.29 193.685 263.506 193.545 262.712L193.511 262.517C193.092 260.141 192.385 258.081 191.44 256.305C189.68 252.998 187.09 250.675 183.982 249.117C180.643 247.445 176.706 246.657 172.555 246.482L186.327 229.731L183.947 216.23L134.796 224.896L137.485 240.146L163.518 235.556L150.362 252.398L154.812 261.729L162.777 260.325C169.868 259.075 174.313 260.995 175.084 265.366L175.118 265.56C175.854 269.737 172.934 273.056 167.592 273.998C163.284 274.758 159.251 274.074 155.273 272.22C153.739 271.504 152.212 270.614 150.681 269.565C150.454 269.409 150.227 269.25 150 269.088L140.239 283.028C141.251 283.813 142.3 284.55 143.386 285.231C145.271 286.415 147.27 287.434 149.391 288.263C155.573 290.677 162.8 291.469 171.309 289.969C179.679 288.493 186.328 284.54 190.195 278.972ZM166.419 263.484C166.419 263.484 166.411 263.489 166.394 263.496C166.41 263.488 166.419 263.484 166.419 263.484ZM263.192 237.513C265.093 248.295 261.589 256.825 254.013 258.161C246.436 259.497 240.015 252.616 238.097 241.737L238.062 241.543C236.144 230.664 239.762 222.214 247.242 220.895C254.721 219.576 261.256 226.536 263.158 237.318L263.192 237.513Z" fill="#F2F2F2"/>
<path fill-rule="evenodd" clip-rule="evenodd" d="M256.765 274.902C237.338 278.328 222.581 264.504 219.19 245.272L219.156 245.078C215.764 225.845 225.16 207.562 244.49 204.154C263.82 200.746 278.674 214.552 282.065 233.785L282.099 233.979C285.49 253.212 276.192 271.477 256.765 274.902ZM254.013 258.161C261.59 256.825 265.093 248.295 263.192 237.513L263.158 237.319C261.257 226.537 254.721 219.577 247.242 220.895C239.762 222.214 236.144 230.664 238.063 241.543L238.097 241.738C240.015 252.617 246.436 259.497 254.013 258.161ZM201.607 283.225L198.267 264.284L217.5 260.893L220.84 279.834L201.607 283.225ZM140.239 283.028C148.129 289.149 158.196 292.281 171.309 289.969C186.462 287.297 195.977 276.505 193.545 262.712L193.511 262.518C191.473 250.959 182.646 246.907 172.555 246.482L186.328 229.732L183.947 216.23L134.797 224.897L137.486 240.147L163.518 235.557L150.363 252.399L154.812 261.73L162.777 260.325C169.868 259.075 174.313 260.995 175.084 265.366L175.118 265.561C175.855 269.738 172.934 273.057 167.592 273.999C161.375 275.095 155.73 273.186 150 269.088L140.239 283.028Z" fill="#FF0020"/>
</svg>
